# xmcd
#
# Track frame offsets:
#	150
#	20862
#	41070
#	63045
#	80417
#	107740
#	126845
#	151827
#	172602
#	194432
#
# Disc length: 2873 seconds
#
# Revision: 0
# Processed by: cddbd v1.5.2PL0 Copyright (c) Steve Scherf et al.
# Submitted via: EasyCDDAExtractor 16.0.9.1
#
DISCID=780b370a
DTITLE=Anh Tú - KH35: Yêu Em
DYEAR=1996
DGENRE=Pop
TTITLE0=Linh Hồn Tượng Đá
TTITLE1=Tình Đã Bay Xa
TTITLE2=Mùa Đông Sắp Đến
TTITLE3=Một Thoáng Chim Bay
TTITLE4=Cây Đàn Bỏ Quên
TTITLE5=Hoài Mong
TTITLE6=Yêu Em
TTITLE7=Giã Từ Bóng Tối
TTITLE8=Về Đây Nghe Em
TTITLE9=Tuổi Xa Người
EXTD=
EXTT0=
EXTT1=
EXTT2=
EXTT3=
EXTT4=
EXTT5=
EXTT6=
EXTT7=
EXTT8=
EXTT9=
PLAYORDER=
